Coordinates
version=1
nRows=10
nColumns=34
inDegrees=yes

Units are S.I. units (second, meters, Newtons, ...)
If the header above contains a line with 'inDegrees', this indicates whether rotational values are in degrees (yes) or radians (no).

endheader
time	pelvis_tilt	pelvis_list	pelvis_rotation	pelvis_tx	pelvis_ty	pelvis_tz	hip_flexion_r	hip_adduction_r	hip_rotation_r	knee_angle_r	ankle_angle_r	subtalar_angle_r	mtp_angle_r	hip_flexion_l	hip_adduction_l	hip_rotation_l	knee_angle_l	ankle_angle_l	subtalar_angle_l	mtp_angle_l	lumbar_extension	lumbar_bending	lumbar_rotation	arm_flex_r	arm_add_r	arm_rot_r	elbow_flex_r	pro_sup_r	arm_flex_l	arm_add_l	arm_rot_l	elbow_flex_l	pro_sup_l
      0.00000000	     -3.41323925	      0.03584283	     -9.52098186	     -0.05289167	      1.20673578	     -0.12366340	      1.07236685	     -0.05649903	     -4.90586812	      5.16777947	     -1.36128576	    -11.05613459	      0.00000000	      0.61266797	      2.33781107	     -3.90493393	      3.86032498	      5.21710306	     -2.64838518	      0.00000000	     -1.58317156	     -0.69715415	     -5.65063007	      5.57032833	     -8.93181175	     10.76572414	     94.59277368	     97.53873615	     -8.40732917	    -14.33758812	      0.11221350	    124.76989955	    104.30164272
      0.01666670	     -4.23931354	      0.75281176	     -9.43105866	     -0.05189495	      1.20562108	     -0.12569314	      2.15957015	     -0.73605394	     -5.10966832	      5.71661344	      2.01588650	     -7.15123270	      0.00000000	      1.66214194	      3.46198693	     -4.76857709	      3.59356828	      5.38833347	     -0.80510276	      0.00000000	      0.04177853	     -0.91547852	     -5.73677109	      4.99285658	     -7.61675671	      7.55530723	     93.31025388	     97.25841342	     -9.37967735	    -14.71199795	     -0.25000920	    123.77264908	    103.16019596
      0.03333330	     -4.44412720	      1.74878815	     -9.89037326	     -0.04817366	      1.20591621	     -0.12264077	      2.26504255	     -1.61168588	     -5.36166637	      5.20382697	      3.02186343	     -6.41043664	      0.00000000	      1.61070815	      4.51922106	     -6.12081114	      3.11233944	      5.12320913	     -0.74810335	      0.00000000	      0.72092779	     -2.24513181	     -5.27054070	      4.07658879	     -7.47488841	      7.69809690	     92.68236079	     97.28407531	     -9.68158687	    -15.53982503	     -0.49411856	    122.25519926	    102.70474853
      0.05000000	     -4.08002415	      2.00714176	     -9.92461598	     -0.04787183	      1.20367604	     -0.12430397	      1.78861906	     -2.01073406	     -5.79780279	      5.10956140	      3.74694148	     -5.55921918	      0.00000000	      0.84700665	      5.07067203	     -6.31819849	      2.52828509	      4.96487221	     -0.67126561	      0.00000000	      0.58953263	     -2.77425480	     -4.76485762	      3.59943816	     -7.80481216	      7.97183024	     91.22397008	     97.25672752	     -9.61640758	    -15.81447556	     -0.18260872	    119.39168841	    102.13605401
      0.06666670	     -3.99686662	      2.20148643	     -9.88799019	     -0.04684169	      1.20205960	     -0.12345891	      1.53393234	     -2.20328086	     -5.64101007	      5.06514506	      4.31491407	     -5.49816536	      0.00000000	      0.40757490	      5.40987306	     -6.22374335	      2.02335045	      5.09960453	     -0.74611397	      0.00000000	      0.50391747	     -3.21292399	     -4.54917175	      2.90346903	     -7.72161889	      8.20711277	     90.97462907	     97.22158898	    -10.34726379	    -16.21578571	     -0.09604010	    118.19448330	    101.99101743
      0.08333330	     -3.73450158	      2.24025122	     -9.85006544	     -0.04649476	      1.20268855	     -0.12486013	      1.19859141	     -2.31410402	     -5.52523862	      5.04149894	      4.95719969	     -5.31551217	      0.00000000	     -0.06191889	      5.59976011	     -6.11740131	      1.66102575	      4.96630159	     -0.87900824	      0.00000000	      0.33052917	     -3.28042497	     -4.13229225	      2.77220898	     -7.45383527	      8.24894940	     89.82353570	     97.06470903	    -10.91430940	    -16.38551964	      0.12099032	    115.71926327	    101.74290268
      0.10000000	     -3.53647035	      2.19124317	     -9.68567423	     -0.04587803	      1.19850259	     -0.12434147	      0.92741820	     -2.37195038	     -5.38003122	      5.18368911	      5.42659725	     -5.37822292	      0.00000000	     -0.30508796	      5.63407527	     -5.87720486	      1.62058721	      5.22927042	     -1.14676876	      0.00000000	      0.17742669	     -3.28875833	     -4.01246233	      2.87206872	     -7.09430142	      8.43267288	     88.21467943	     96.83162646	    -11.25494635	    -16.55235425	      0.84704209	    113.35520542	    101.51059132
      0.11666670	     -3.45382232	      2.20253502	     -9.53437549	     -0.04391078	      1.20000554	     -0.12345481	      0.64704734	     -2.40679676	     -5.28278102	      4.93776696	      5.31521072	     -5.51669635	      0.00000000	     -0.51996041	      5.62679328	     -5.84581694	      1.54361106	      5.08109878	     -1.63876374	      0.00000000	      0.28009695	     -3.31806587	     -3.80549092	      3.18207317	     -7.02880907	      8.92630216	     86.12902958	     96.45272367	    -11.70468717	    -16.60799229	      1.65058346	    110.35855361	    101.20596608
      0.13333330	     -3.27814790	      2.13895115	     -9.40238257	     -0.04061881	      1.19875951	     -0.12206294	      0.13028454	     -2.34421716	     -5.10925659	      4.67569897	      5.30981332	     -5.63504389	      0.00000000	     -0.90840975	      5.52108704	     -5.68575131	      1.50780989	      5.04137487	     -1.89499828	      0.00000000	      0.33582726	     -3.19155532	     -3.77906481	      3.77392690	     -6.75343240	      9.36725688	     83.15282953	     96.02008183	    -12.02407831	    -16.76124503	      2.57104082	    107.03497030	    100.96520411
      0.15000000	     -3.12868806	      2.05872033	     -9.38713246	     -0.03777910	      1.20695128	     -0.12148685	     -0.37290093	     -2.22590889	     -5.06002190	      4.33657770	      5.02939778	     -5.55339169	      0.00000000	     -1.37465299	      5.41028317	     -5.61762459	      1.21188463	      4.61921210	     -1.85216735	      0.00000000	      0.41535378	     -3.02739845	     -3.79338353	      4.42430155	     -6.40509866	     10.22474058	     78.49591951	     95.59260121	    -11.53791589	    -16.65826939	      3.77198648	    102.14191703	    100.81168012
